<?xml version="1.0" standalone="no"?>
<!DOCTYPE svg PUBLIC "-//W3C//DTD SVG 20010904//EN"
 "http://www.w3.org/TR/2001/REC-SVG-20010904/DTD/svg10.dtd">
<svg version="1.0" xmlns="http://www.w3.org/2000/svg"
 width="500.000000pt" height="500.000000pt" viewBox="0 0 500.000000 500.000000"
 preserveAspectRatio="xMidYMid meet">

<g transform="translate(0.000000,500.000000) scale(0.100000,-0.100000)"
fill="#000000" stroke="none">
<path d="M60 2775 l0 -925 190 0 190 0 0 222 0 223 223 -223 222 -222 245 0
245 0 -287 288 -286 287 259 265 259 265 -242 3 -242 2 -191 -190 c-105 -104
-194 -190 -198 -190 -4 0 -7 252 -7 560 l0 560 -190 0 -190 0 0 -925z"/>
<path d="M1601 2975 c-103 -23 -168 -61 -252 -144 -121 -121 -169 -243 -170
-428 0 -180 54 -316 171 -433 110 -110 236 -156 400 -147 117 6 187 31 276 98
l64 48 0 -59 0 -60 190 0 190 0 0 44 0 43 84 -42 c121 -60 222 -80 378 -72
180 9 276 39 359 114 40 36 89 118 89 148 0 8 39 -25 88 -73 96 -98 179 -147
302 -178 79 -20 273 -15 363 10 126 35 232 103 306 195 l38 49 6 -48 c21 -180
221 -278 374 -184 118 73 152 215 79 336 -44 74 -107 111 -195 116 -57 3 -74
-1 -121 -25 -59 -30 -117 -96 -127 -144 -3 -16 -7 -29 -9 -29 -2 0 -64 30
-138 67 l-134 67 -41 -37 c-86 -78 -196 -104 -304 -73 -72 21 -140 83 -156
141 -22 82 -60 74 392 77 l402 3 -3 85 c-6 168 -50 280 -151 380 -108 107
-226 156 -400 167 -213 13 -420 -86 -541 -259 -58 -82 -88 -157 -97 -239 -3
-32 -8 -59 -11 -59 -3 0 -30 17 -61 37 -31 20 -111 56 -180 80 -160 55 -173
64 -169 111 4 47 32 62 117 62 45 0 89 -9 153 -31 49 -17 91 -29 93 -27 8 9
115 229 115 237 0 13 -87 47 -175 67 -97 23 -285 25 -365 5 -137 -35 -239
-108 -281 -204 -33 -74 -33 -193 0 -259 41 -86 142 -159 307 -223 101 -39 134
-64 134 -101 0 -38 -16 -61 -51 -73 -71 -24 -151 -4 -273 70 -54 33 -70 38
-77 28 -5 -8 -33 -54 -62 -104 l-52 -90 -3 473 -2 472 -190 0 -190 0 0 -50 c0
-27 -2 -50 -5 -50 -2 0 -30 18 -61 40 -108 75 -285 107 -423 75z m2425 -260
c53 -27 90 -72 100 -123 l7 -32 -212 0 c-138 0 -211 4 -211 10 0 21 31 85 53
109 59 63 176 80 263 36z m-2081 -74 c93 -42 148 -132 148 -241 0 -77 -18
-123 -68 -178 -47 -53 -111 -77 -195 -76 -119 1 -205 64 -237 173 -52 181 64
341 247 341 41 0 80 -7 105 -19z"/>
</g>
</svg>
